<?xml version="1.0" ?><svg viewBox="0 0 281.97 501.83" xmlns="http://www.w3.org/2000/svg"><defs><style>.cls-1{fill:#173156;}</style></defs><title/><g data-name="Capa 2" id="Capa_2"><g id="Outline"><g id="Eggplant"><path class="cls-1" d="M281.53,159.33a8.49,8.49,0,0,0-7.79-5.81c-11.77-.37-37.33-27.86-52.06-47.6a68.22,68.22,0,0,0-47.62-62V19A19,19,0,0,0,155,0h-2.14a19,19,0,0,0-19,19V43.78a68.27,68.27,0,0,0-44.07,42q-.17.4-.3.84C85.61,99.46,52.23,113,39.3,113a8.5,8.5,0,0,0-6.18,14.33c16.06,17,37.17,23.73,53.11,26.29-10,51.05-30,133.29-61.09,173.33a106.24,106.24,0,1,0,187.35,68.61V182.78c19.18,4.19,43.91,3.86,66.3-14.13A8.49,8.49,0,0,0,281.53,159.33Zm-86,236.25A89.25,89.25,0,1,1,38.22,337.83l.22-.27c17.92-23,43.34-72.68,64.21-179.26l17.95,55.41a8.49,8.49,0,0,0,6,5.61,8.87,8.87,0,0,0,2.22.27c.28,0,.57,0,.85-.06l.32,0,.64-.13.31-.07a8.45,8.45,0,0,0,.85-.28l.11,0a8.08,8.08,0,0,0,.79-.37l.27-.15.58-.37.25-.17a8.81,8.81,0,0,0,.75-.62L183,171.81l1.51.79.45.23,1.29.65.47.23,1.86.89.21.09,1.79.82.58.26,1.7.73.51.21c.7.29,1.4.58,2.13.86Zm13-231.42c-.59-.18-1.16-.37-1.73-.57l-.1,0a94.9,94.9,0,0,1-20.18-9.36,8.52,8.52,0,0,0-10.53.88l-43.32,40.64-16.78-51.78a8.6,8.6,0,0,0-.51-1.21l0-.07a8,8,0,0,0-.65-1l-.07-.11a8.48,8.48,0,0,0-.79-.9l-.09-.1a8.24,8.24,0,0,0-.91-.77l-.11-.08a9.63,9.63,0,0,0-1-.63l-.1-.05a9.42,9.42,0,0,0-1.14-.47l-.08,0a7.22,7.22,0,0,0-1.22-.29l-.08,0a8.82,8.82,0,0,0-1.27-.1h0l-.56,0H107c-.57,0-2.21.09-4.62,0h-.56l-.64,0h0c-1.24-.05-2.65-.13-4.19-.25s-3.47-.33-5.28-.57C82.2,136,70,133.06,58.84,126.36c18.61-5.74,41.39-17.91,46.76-34.34l.06-.16A51.14,51.14,0,0,1,144,58.75a8.5,8.5,0,0,0,6.88-8.34V19a2,2,0,0,1,2-2H155a2,2,0,0,1,2,2V50.49a8.49,8.49,0,0,0,6.82,8.33,51.1,51.1,0,0,1,40.86,50,8.57,8.57,0,0,0,1.62,5c5.21,7.16,27.08,36.26,48.26,49.77C241.17,169.31,225.72,169.52,208.51,164.16Z"/><path class="cls-1" d="M74.7,456.84a67.78,67.78,0,0,1-28.43-91.51,3.5,3.5,0,1,0-6.19-3.26A74.76,74.76,0,0,0,71.44,463a3.5,3.5,0,0,0,3.26-6.2Z"/><path class="cls-1" d="M140.81,69.06A44.61,44.61,0,0,0,111,96.73a3.5,3.5,0,0,0,2.1,4.48,3.56,3.56,0,0,0,1.19.21,3.49,3.49,0,0,0,3.29-2.31A37.61,37.61,0,0,1,142.7,75.8a3.5,3.5,0,0,0-1.89-6.74Z"/></g></g></g></svg>